<svg viewBox="0 0 1200 800" xmlns="http://www.w3.org/2000/svg">
    <defs>
        <linearGradient id="flower-gradient" x1="0%" y1="0%" x2="100%" y2="100%">
        <stop offset="0%" style="stop-color: rgb(37, 99, 235)" />
        <stop offset="100%" style="stop-color: rgb(147, 51, 234)" />
        </linearGradient>
    </defs>
    <path fill="url(#flower-gradient)" d="
        M 600,0
        C 600,0 500,100 400,120
        C 300,140 200,100 100,150
        C 0,200 0,250 0,300
        C 0,350 50,400 150,380
        C 250,360 350,300 400,320
        C 450,340 500,400 600,400
        C 700,400 750,340 800,320
        C 850,300 950,360 1050,380
        C 1150,400 1200,350 1200,300
        C 1200,250 1200,200 1100,150
        C 1000,100 900,140 800,120
        C 700,100 600,0 600,0
        Z">
        <animate 
        attributeName="d" 
        dur="20s" 
        repeatCount="indefinite"
        values="
            M 600,0 C 600,0 500,100 400,120 C 300,140 200,100 100,150 C 0,200 0,250 0,300 C 0,350 50,400 150,380 C 250,360 350,300 400,320 C 450,340 500,400 600,400 C 700,400 750,340 800,320 C 850,300 950,360 1050,380 C 1150,400 1200,350 1200,300 C 1200,250 1200,200 1100,150 C 1000,100 900,140 800,120 C 700,100 600,0 600,0;
            M 600,0 C 600,0 520,120 420,130 C 320,140 220,90 120,160 C 20,230 10,270 10,300 C 10,330 60,380 160,370 C 260,360 360,310 410,330 C 460,350 510,400 600,400 C 690,400 740,350 790,330 C 840,310 940,360 1040,370 C 1140,380 1190,330 1190,300 C 1190,270 1180,230 1080,160 C 980,90 880,140 780,130 C 680,120 600,0 600,0;
            M 600,0 C 600,0 500,100 400,120 C 300,140 200,100 100,150 C 0,200 0,250 0,300 C 0,350 50,400 150,380 C 250,360 350,300 400,320 C 450,340 500,400 600,400 C 700,400 750,340 800,320 C 850,300 950,360 1050,380 C 1150,400 1200,350 1200,300 C 1200,250 1200,200 1100,150 C 1000,100 900,140 800,120 C 700,100 600,0 600,0"
        />
    </path>
</svg>